# xmcd
#
# Track frame offsets: 
#        150
#        18750
#        40687
#        65155
#        87430
#        106048
#        123973
#        141635
#        164153
#
# Disc length: 2413 seconds
#
# Revision: 0
# Processed by: cddbd v1.5.2PL0 Copyright (c) Steve Scherf et al.
# Submitted via: ExactAudioCopyFreeDBPlugin 1.0
#
DISCID=7a096b09
DTITLE=Simon Boult - To be so Far from Home
DYEAR=2016
DGENRE=Blues
TTITLE0=Sunrise
TTITLE1=Buntline Special
TTITLE2=Lioness
TTITLE3=A Walk
TTITLE4=Broken Hill
TTITLE5=Mother of the Child
TTITLE6=To Be So Far From Home
TTITLE7=Somebody's Sat In My Chair
TTITLE8=Thoughts From The Garden
EXTD=
EXTT0=
EXTT1=
EXTT2=
EXTT3=
EXTT4=
EXTT5=
EXTT6=
EXTT7=
EXTT8=
PLAYORDER=
